<svg xmlns="http://www.w3.org/2000/svg" width="141.565" height="46" viewBox="0 0 141.565 46"><g transform="translate(0 0.001)"><path d="M23,23.018,33.74,33.79l-2.23,2.23L23,27.529h0L14.49,36.02l-2.23-2.23L23,23.018h0ZM23,16.5,36.763,30.3l-2.213,2.23L23,21.01h0L11.45,32.534,9.237,30.3,23,16.5h0ZM23,9.98,39.881,26.912l-2.2,2.23L23,14.491h0L8.315,29.142l-2.2-2.23L23,9.98h0ZM0,46H46V0H0Z" transform="translate(0 -0.001)" fill="#0dcc8a"/><path d="M269.045,0,262.2,8.341V0h-4.621V20.012H262.2V11.131l7.171,8.881h5.941L266.584,9.481,274.686,0Z" transform="translate(-199.867 0)" fill="#fff"/><path d="M357.878,5.971l2.46,6.721h-4.951ZM355.778,0l-8.071,20.013h4.8l1.53-3.781H361.6l1.5,3.781h4.8L360.009,0Z" transform="translate(-269.797 -0.001)" fill="#fff"/><path d="M467.8,0l-4.981,11.971L457.836,0h-3.841l-3.21,20.013h4.621L457,8.071l5.011,11.942h1.62l5.011-11.942,1.59,11.942h4.621L471.638,0Z" transform="translate(-349.778 0)" fill="#fff"/><rect width="4.621" height="20.013" transform="translate(129.51 -0.001)" fill="#fff"/><path d="M277.026,115.978l-1.59,11.942-5.011-11.942H268.8l-5.011,11.942-1.59-11.942h-4.621l3.21,20.013h3.841l4.981-11.971,4.981,11.971h3.841l3.21-20.013Z" transform="translate(-199.867 -89.992)" fill="#fff"/><path d="M374.025,121.949l2.46,6.721h-4.951Zm-2.1-5.971-8.071,20.013h4.8l1.53-3.78h7.561l1.5,3.78h4.8l-7.891-20.013Z" transform="translate(-282.325 -89.992)" fill="#fff"/><path d="M463.089,115.978v3.9h8.041l-9.6,16.112H477.7v-3.9h-8.581l9.572-16.112Z" transform="translate(-358.115 -89.992)" fill="#fff"/><path d="M551.849,121.949l2.46,6.721h-4.951Zm-2.1-5.971-8.071,20.013h4.8l1.53-3.78h7.561l1.5,3.78h4.8l-7.891-20.013Z" transform="translate(-420.305 -89.992)" fill="#fff"/></g></svg>