<svg xmlns="http://www.w3.org/2000/svg" viewBox="0 0 64 64" fill="none">
  <rect width="64" height="64" rx="14" fill="#0a0e17"/>
  <rect x="2" y="2" width="60" height="60" rx="12" stroke="#00d4ff" stroke-width="1.5" stroke-opacity="0.4"/>
  <!-- Brain/circuit icon -->
  <circle cx="32" cy="28" r="12" stroke="#00d4ff" stroke-width="2" fill="none"/>
  <path d="M26 28c0-3.3 2.7-6 6-6s6 2.7 6 6" stroke="#7c3aed" stroke-width="1.5" fill="none"/>
  <circle cx="32" cy="28" r="3" fill="#00d4ff"/>
  <!-- Connection nodes -->
  <circle cx="20" cy="28" r="2" fill="#7c3aed"/>
  <circle cx="44" cy="28" r="2" fill="#7c3aed"/>
  <circle cx="32" cy="16" r="2" fill="#10b981"/>
  <circle cx="32" cy="40" r="2" fill="#10b981"/>
  <!-- Connection lines -->
  <line x1="22" y1="28" x2="29" y2="28" stroke="#7c3aed" stroke-width="1" stroke-opacity="0.6"/>
  <line x1="35" y1="28" x2="42" y2="28" stroke="#7c3aed" stroke-width="1" stroke-opacity="0.6"/>
  <line x1="32" y1="18" x2="32" y2="25" stroke="#10b981" stroke-width="1" stroke-opacity="0.6"/>
  <line x1="32" y1="31" x2="32" y2="38" stroke="#10b981" stroke-width="1" stroke-opacity="0.6"/>
  <!-- Bottom dots -->
  <circle cx="24" cy="48" r="1.5" fill="#00d4ff" opacity="0.8"/>
  <circle cx="32" cy="48" r="1.5" fill="#7c3aed" opacity="0.8"/>
  <circle cx="40" cy="48" r="1.5" fill="#10b981" opacity="0.8"/>
</svg>
